<?xml version="1.0" encoding="utf-8"?>
<!-- Generator: Adobe Illustrator 27.3.1, SVG Export Plug-In . SVG Version: 6.00 Build 0)  -->
<svg version="1.1" id="Layer_1" xmlns="http://www.w3.org/2000/svg" xmlns:xlink="http://www.w3.org/1999/xlink" x="0px" y="0px"
	 viewBox="0 0 390.2 235.8" style="enable-background:new 0 0 390.2 235.8;" xml:space="preserve">
<style type="text/css">
	.st0{fill:#FFFFFF;}
</style>
<g>
	<path class="st0" d="M195.8,156.8c43.8,0,87.6,0,131.4,0c0.8,0,1.6,0,2.4,0.2c2.1,0.6,3.5,2.4,3.5,4.6c0,17.9,0,35.8,0,53.6
		c0,2.6-2,4.7-4.7,4.9c-0.3,0-0.6,0-1,0c-87.8,0-175.6,0-263.3,0c-0.6,0-1.1,0-1.7-0.1c-2.4-0.5-4-2.4-4-4.9c0-17.8,0-35.6,0-53.4
		c0-2.8,2.1-4.9,4.9-5c0.4,0,0.9,0,1.3,0C108.5,156.8,152.1,156.8,195.8,156.8z M161.7,176.3c-2,0-3.7,0-5.6,0c0,12.6,0,25.1,0,37.6
		c2.1,0,4.2,0,6.5,0c0-1.8,0-3.5,0-5.2c0-1.7,0-3.4,0-5c1.8,0.1,3.3,0.3,4.9,0.2c6.2-0.2,10.9-3.6,12.4-9.4c1.1-4.1,1-8.3-0.4-12.3
		c-2.6-7.6-11.2-9.2-16.5-3.3c-0.3,0.3-0.5,0.6-1,1.1C161.8,178.7,161.7,177.5,161.7,176.3z M126.2,176.3c0,9.1,0,18.1,0,27
		c1.9,0,3.6,0,5.5,0c0-0.5,0-0.9,0-1.4c0-5.1,0-10.2,0-15.2c0-2.1,1.1-3.9,2.5-5.4c0.8-0.9,1.9-0.6,2.3,0.6c0.2,0.8,0.2,1.6,0.2,2.4
		c0,5.9,0,11.8,0,17.8c0,0.4,0,0.8,0,1.3c1.9,0,3.7,0,5.6,0c0-0.5,0-0.9,0-1.4c0-5.1,0-10.2,0-15.4c0-2,1-3.8,2.3-5.3
		c0.9-1,2.1-0.6,2.4,0.7c0.1,0.6,0.2,1.3,0.2,1.9c0,6,0,12.1,0,18.1c0,0.4,0,0.8,0,1.2c2,0,3.8,0,5.6,0c0-7.1,0-14,0-21
		c0-1-0.3-2.1-0.6-3c-0.6-2.1-2-3.3-4.1-3.7c-2.2-0.3-3.9,0.3-5.3,2.1c-0.5,0.7-0.9,1.3-1.5,2.2c-0.1-0.3-0.2-0.5-0.2-0.7
		c-0.6-2.4-2.1-3.6-4.5-3.6c-2-0.1-3.5,0.9-4.6,2.6c-0.3,0.5-0.6,1-1.1,1.8c-0.1-1.4-0.1-2.5-0.2-3.6
		C129.2,176.3,127.8,176.3,126.2,176.3z M125.1,189.5c-0.1,0-0.1,0-0.2,0c0-0.7-0.1-1.4-0.1-2c-0.5-6.9-4.4-11-11.2-11.8
		c-7-0.8-12.7,3.1-14.3,9.7c-0.8,3.4-0.8,6.9,0.2,10.3c1.2,4.4,4.1,7.2,8.6,8c1.6,0.3,3.3,0.4,4.9,0.3c5.5-0.3,9.6-3.5,11.2-8.8
		C124.6,193.4,124.7,191.4,125.1,189.5z M208.5,189.6c-0.1,0-0.2,0-0.2-0.1c0-0.7-0.1-1.4-0.1-2c-0.4-6.8-4.3-11-11.1-11.8
		c-7-0.8-12.8,2.9-14.5,9.5c-0.9,3.5-0.8,7.1,0.2,10.6c1.3,4.4,4.1,7.1,8.6,8c1.6,0.3,3.2,0.4,4.8,0.3c5.3-0.3,9.4-3.3,11.1-8.4
		C207.9,193.7,208.1,191.6,208.5,189.6z M263.3,191.4c0-1.7,0.1-3.3,0-4.9c-0.3-3.7-1.6-6.9-4.8-9.1c-6.3-4.1-15-1.6-18.2,5.1
		c-1.7,3.6-2,7.5-1.3,11.4c0.9,5.2,3.9,8.6,9.1,9.7c4.4,0.9,8.8,0.2,13.2-0.8c0.2-0.1,0.6-0.4,0.6-0.6c0-1.5,0-3.1,0-4.6
		c-2.2,0.4-4.2,0.9-6.2,1c-1.8,0.1-3.7,0.2-5.5-0.2c-3.2-0.7-5.2-3.9-4.7-7C251.4,191.4,257.2,191.4,263.3,191.4z M95.7,175.5
		c0-1.7,0-3.5,0-5.3c0-0.8-0.3-1.1-1-1.3c-2.9-0.9-5.8-1.2-8.8-1c-7,0.4-11.9,4.3-13.8,11c-1.5,5-1.5,10-0.1,15
		c1.3,4.7,4.2,8,8.9,9.4c4.8,1.4,9.5,0.9,14.1-0.8c0.3-0.1,0.6-0.5,0.6-0.7c0.1-1.8,0-3.6,0-5.6c-0.6,0.2-1,0.4-1.4,0.5
		c-2,0.5-3.9,1.2-5.9,1.4c-4.9,0.5-8.4-2.1-9.5-7c-0.7-3.3-0.8-6.7,0-10c1.2-5.4,5.1-8.1,10.6-7.2C91.5,174.3,93.5,175,95.7,175.5z
		 M234.6,203.4c0-0.3,0-0.5,0-0.7c0-6,0-11.9,0-17.9c0-1.2-0.2-2.4-0.5-3.5c-0.8-2.8-2.6-4.8-5.5-5.4c-3.7-0.8-6.9,0.2-9.5,2.9
		c-0.4,0.4-0.8,0.8-1.3,1.4c-0.1-1.4-0.2-2.6-0.3-3.8c-1.9,0-3.7,0-5.5,0c0,9,0,18,0,27c2.2,0,4.3,0,6.5,0c0-0.5,0-1,0-1.4
		c0-4.8,0-9.7,0-14.5c0-0.4-0.1-0.9,0.1-1.2c1.4-1.9,2.7-3.9,5.1-4.7c2.1-0.8,3.8,0.3,4.3,2.5c0.1,0.7,0.2,1.4,0.2,2.1
		c0,5.3,0,10.6,0,16c0,0.4,0,0.8,0,1.3C230.3,203.4,232.4,203.4,234.6,203.4z M274,203.3c0-5.4,0-10.7,0-16c0-0.4-0.1-0.9,0.1-1.2
		c1.3-1.9,2.6-3.8,4.8-4.7c2.2-0.9,4.1,0.1,4.6,2.5c0.1,0.7,0.2,1.3,0.2,2c0,5.3,0,10.6,0,16c0,0.4,0,0.9,0,1.3c2.2,0,4.3,0,6.5,0
		c0-0.3,0-0.5,0-0.8c0-5.8,0-11.7,0-17.5c0-0.9-0.1-1.8-0.3-2.7c-0.6-3.2-2.3-5.6-5.7-6.4c-3.6-0.8-6.8,0-9.5,2.7
		c-0.5,0.5-0.9,1-1.5,1.6c-0.1-1.4-0.1-2.6-0.2-3.8c-1.9,0-3.7,0-5.6,0c0,9.1,0,18,0,27C269.7,203.3,271.8,203.3,274,203.3z
		 M307.2,181.2c3.5,0,7,0,10.4,0c0-1.7,0-3.3,0-5c-3.5,0-7,0-10.5,0c0-2.9,0-5.6,0-8.5c-1.9,0.5-3.7,1-5.5,1.4
		c-0.9,0.2-1.2,0.6-1.2,1.5c0.1,1.9,0,3.7,0,5.7c-2.5,0-4.9,0-7.2,0c0,1.7,0,3.3,0,5c2.4,0,4.8,0,7.2,0c0,4.3,0,8.4,0,12.5
		c0,1.2,0.1,2.4,0.2,3.6c0.5,3.4,2.5,5.4,5.8,6.3c3.5,0.9,7.1,0.4,10.6-0.3c0.3-0.1,0.6-0.4,0.6-0.7c0.1-1.5,0-3,0-4.6
		c-0.5,0.1-0.9,0.2-1.3,0.3c-1.8,0.2-3.6,0.5-5.5,0.5c-2.2,0-3.6-1.3-3.7-3.5C307.2,190.7,307.2,186.1,307.2,181.2z"/>
	<path class="st0" d="M190.7,114.7c0-2.6,0-4.9,0-7.2c0-5.5,0-11,0-16.4c0-0.9,0.2-1.8,0.6-2.7c0.7-1.5,2.5-2.4,4-2.2
		c1.7,0.2,3.2,1.6,3.6,3.3c0.1,0.6,0.2,1.3,0.2,1.9c0,7.3,0,14.6,0,21.8c0,0.4,0,0.8,0,1.5c0.4-0.4,0.7-0.6,0.9-0.9
		c2.8-2.8,5.6-5.7,8.5-8.5c2.1-2,5.1-1.8,6.5,0.5c0.9,1.5,0.9,3,0,4.5c-0.3,0.5-0.7,0.9-1.1,1.3c-5.2,5.2-10.4,10.4-15.6,15.6
		c-2.4,2.4-4.6,2.4-6.9,0c-5.2-5.2-10.5-10.4-15.7-15.7c-1.3-1.3-2.3-2.8-1.4-4.8c1.3-2.9,4.5-3.7,6.8-1.4c2.9,2.8,5.7,5.6,8.5,8.5
		C189.9,113.9,190.2,114.2,190.7,114.7z"/>
	<path class="st0" d="M160.7,52.6c-1.9,0-3.6,0-5.5,0c0-0.4,0-0.9,0-1.3c0-5.2,0-10.3,0-15.5c0-1.5-0.1-3.1-0.5-4.5
		c-1.1-4.2-5-6.1-9-4.4c-3,1.3-4.8,3.7-4.9,7.1c-0.1,5.7,0,11.4,0,17.2c0,0.4,0,0.9,0,1.4c-1.9,0-3.6,0-5.4,0c0-14.6,0-29.1,0-43.8
		c1.8,0,3.5,0,5.4,0c0,6.1,0,12.1,0,17.5c0.6-0.5,1.6-1.1,2.6-1.8c3.3-2.4,6.9-3.3,10.8-1.7c3.9,1.6,5.6,4.8,6.3,8.7
		c0.2,1.2,0.3,2.4,0.3,3.6C160.7,40.8,160.7,46.6,160.7,52.6z"/>
	<path class="st0" d="M253.8,22.6c-2.1,2.2-4,4.2-5.9,6.2c-1.9,2-3.8,4-5.7,6.1c4.4,5.8,8.7,11.6,13.2,17.7c-2.3,0-4.3,0-6.3,0
		c-0.3,0-0.7-0.5-0.9-0.8c-3-4.1-6-8.3-9-12.4c-0.2-0.3-0.5-0.6-0.8-1.1c-0.9,1-1.7,1.9-2.5,2.8c-0.2,0.3-0.3,0.8-0.3,1.2
		c0,3,0,5.9,0,8.9c0,0.4,0,0.9,0,1.3c-1.8,0-3.5,0-5.3,0c0-14.6,0-29.2,0-43.8c1.7,0,3.4,0,5.3,0c0,9.1,0,18.2,0,27.3
		c0.1,0,0.2,0.1,0.3,0.1c0.3-0.4,0.7-0.8,1-1.2c3.3-3.9,6.6-7.8,9.9-11.7c0.2-0.3,0.6-0.5,1-0.5C249.7,22.6,251.6,22.6,253.8,22.6z"
		/>
	<path class="st0" d="M164.7,37.8c0.5-2.3,0.8-4.7,1.6-6.9c2.3-6.1,8.5-9.6,15.2-8.9c6.8,0.8,11.6,5.5,12.5,12.2
		c0.5,3.5,0.3,6.9-1,10.3c-2.4,6-8.7,9.6-15.2,8.9c-6.8-0.8-11.6-5.5-12.5-12.2c-0.1-1.1-0.2-2.1-0.3-3.2
		C164.9,37.8,164.8,37.8,164.7,37.8z M170.5,37.4c0,2.6,0.4,4.9,1.5,7c1.6,3,4,4.9,7.5,4.9c3.5,0,6-1.8,7.5-4.8
		c2.4-4.7,2.3-9.5-0.2-14c-3.2-5.8-11-5.9-14.4-0.2C171.1,32.4,170.6,35,170.5,37.4z"/>
	<path class="st0" d="M196.1,37.7c0.5-2.3,0.8-4.7,1.6-6.8c2.3-6.1,8.5-9.7,15.1-8.9c6.8,0.8,11.6,5.4,12.6,12.2
		c0.5,3.5,0.3,7-1,10.4c-2.4,6-8.8,9.6-15.3,8.8c-6.8-0.9-11.6-5.6-12.5-12.3c-0.1-1.1-0.2-2.1-0.3-3.2
		C196.3,37.7,196.2,37.7,196.1,37.7z M202,37.3c0,2.6,0.4,4.9,1.5,7c1.6,3,4,4.9,7.5,5c3.5,0,6-1.8,7.5-4.8c2.4-4.7,2.3-9.4-0.2-14
		c-3.2-5.8-11-5.9-14.4-0.2C202.5,32.4,202,35,202,37.3z"/>
	<path class="st0" d="M129,52.6c-0.6-0.3-1-0.5-1.4-0.7c-8.8-4.5-17.5-9-26.3-13.5c-0.8-0.4-1.1-0.9-1.1-1.8
		c-0.1-1.6,0.4-2.4,1.9-3.2c8.6-4.3,17-8.7,25.6-13.1c0.4-0.2,0.8-0.4,1.3-0.6c0,1.3,0.1,2.5,0,3.7c0,0.4-0.5,0.8-0.9,1
		c-7.3,3.7-14.6,7.4-21.9,11c-0.4,0.2-0.8,0.4-1.4,0.7c3.1,1.5,6,3,8.9,4.5c4.8,2.4,9.6,4.8,14.5,7.2c0.7,0.3,1,0.7,1,1.5
		C128.9,50.4,129,51.4,129,52.6z"/>
	<path class="st0" d="M256.4,52.6c0-1.4-0.1-2.5,0-3.7c0-0.4,0.6-0.8,1-1c7.2-3.6,14.5-7.2,21.7-10.8c0.5-0.3,1.1-0.5,1.7-0.9
		c-0.5-0.3-0.9-0.5-1.2-0.7c-7.4-3.7-14.7-7.3-22.1-11c-0.9-0.4-1.3-0.9-1.2-1.9c0.1-0.9,0-1.8,0-2.9c0.5,0.2,0.9,0.3,1.3,0.5
		c8.8,4.5,17.6,9.1,26.4,13.5c0.8,0.4,1,0.9,1.1,1.8c0.2,1.7-0.5,2.6-2,3.3c-8.5,4.3-17,8.7-25.5,13C257.4,52.2,257,52.4,256.4,52.6
		z"/>
	<path class="st0" d="M17.7,200.5c0,2.7-1.8,4.5-4.4,4.5c-2.4,0-4.2-2-4.2-4.6c0-2.6,1.9-4.6,4.4-4.5C16,196,17.8,197.9,17.7,200.5z
		"/>
	<path class="st0" d="M29.7,200.5c0,2.7-1.8,4.6-4.3,4.6c-2.5,0-4.3-1.9-4.3-4.5c0-2.6,1.8-4.6,4.3-4.6
		C28,196,29.7,197.8,29.7,200.5z"/>
	<path class="st0" d="M41.7,200.5c0,2.7-1.8,4.5-4.3,4.5c-2.5,0-4.2-1.9-4.2-4.5c0-2.6,1.9-4.6,4.4-4.5
		C40,196,41.7,197.9,41.7,200.5z"/>
	<path class="st0" d="M356.2,201.2c0,2.7-1.8,4.6-4.3,4.6c-2.5,0-4.3-1.9-4.3-4.5c0-2.6,1.9-4.6,4.4-4.6
		C354.4,196.7,356.2,198.6,356.2,201.2z"/>
	<path class="st0" d="M368.2,201.2c0,2.7-1.8,4.5-4.3,4.5c-2.5,0-4.2-1.9-4.2-4.5c0-2.6,1.9-4.6,4.4-4.5
		C366.4,196.7,368.2,198.6,368.2,201.2z"/>
	<path class="st0" d="M380.4,201.2c0,2.7-1.7,4.6-4.3,4.6c-2.5,0-4.3-1.9-4.3-4.5c0-2.6,1.8-4.6,4.3-4.6
		C378.6,196.7,380.4,198.5,380.4,201.2z"/>
	<path class="st0" d="M65,49.4c0,2.3-1.5,4-3.7,4c-2.1,0-3.7-1.7-3.7-3.9c0-2.2,1.5-3.9,3.7-3.9C63.4,45.5,65,47.1,65,49.4z"/>
	<path class="st0" d="M75.6,49.4c0,2.3-1.5,4-3.7,3.9c-2.1,0-3.7-1.7-3.7-3.9c0-2.2,1.6-3.9,3.7-3.9C74,45.5,75.5,47.1,75.6,49.4z"
		/>
	<path class="st0" d="M85.9,49.4c0,2.3-1.5,4-3.7,3.9c-2.1,0-3.7-1.7-3.7-3.9c0-2.2,1.6-3.9,3.7-3.9C84.3,45.5,85.9,47.1,85.9,49.4z
		"/>
	<path class="st0" d="M328.6,49.4c0,2.3-1.5,3.9-3.6,3.9c-2.2,0-3.8-1.7-3.8-3.9c0-2.2,1.6-3.9,3.7-3.9
		C327.1,45.6,328.6,47.2,328.6,49.4z"/>
	<path class="st0" d="M318.3,49.4c0,2.3-1.5,4-3.7,3.9c-2.1,0-3.7-1.7-3.7-3.9c0-2.2,1.6-3.9,3.7-3.9
		C316.8,45.5,318.3,47.1,318.3,49.4z"/>
	<path class="st0" d="M308,49.4c0,2.3-1.5,4-3.7,4c-2.1,0-3.7-1.7-3.7-3.9c0-2.2,1.5-3.9,3.7-3.9C306.4,45.5,307.9,47.1,308,49.4z"
		/>
	<path class="st0" d="M162.6,192.1c0-1.2-0.1-2.5,0-3.7c0.1-1,0.1-2.1,0.6-2.8c1.2-1.7,2.5-3.5,4.7-4.1c1.8-0.6,3.8,0.1,4.6,1.9
		c1.8,4.2,1.9,8.5-0.3,12.6c-1.5,2.7-4.1,3.3-7.1,2.9c-2.4-0.3-2.4-0.3-2.4-2.7C162.6,194.7,162.6,193.4,162.6,192.1z"/>
	<path class="st0" d="M105.1,189.7c0.5-1.8,0.8-3.8,1.7-5.6c1-2.3,3.2-3,5.6-2.9c2.3,0.2,4.1,1.3,4.9,3.5c1.2,3.4,1.2,6.9-0.2,10.3
		c-1,2.2-2.7,3.4-5.2,3.4c-2.5,0-4.5-1.1-5.4-3.4C105.8,193.4,105.6,191.6,105.1,189.7z"/>
	<path class="st0" d="M201.7,190.1c-0.4,1.5-0.6,3.3-1.2,4.9c-0.9,2.4-2.8,3.5-5.4,3.4c-2.5,0-4.4-1.2-5.3-3.5
		c-1.3-3.3-1.3-6.7,0-9.9c1-2.6,3.1-3.8,6-3.7c2.6,0.1,4.4,1.6,5.2,4.2C201.3,186.9,201.4,188.3,201.7,190.1z"/>
	<path class="st0" d="M256.6,186.6c-3.7,0-7.4,0-11,0c-0.1-3.5,2.5-6.1,5.9-6C254.7,180.6,256.8,183,256.6,186.6z"/>
</g>
</svg>
