<?xml version="1.0" encoding="utf-8"?>
<!-- Generator: Adobe Illustrator 27.3.1, SVG Export Plug-In . SVG Version: 6.00 Build 0)  -->
<svg version="1.1" id="Layer_1" xmlns="http://www.w3.org/2000/svg" xmlns:xlink="http://www.w3.org/1999/xlink" x="0px" y="0px"
	 viewBox="0 0 43.5 43.8" style="enable-background:new 0 0 43.5 43.8;" xml:space="preserve">
<style type="text/css">
	.st0{fill:#FFFFFF;}
</style>
<g>
	<path class="st0" d="M17.6,29.4c0-0.2,0-0.4,0-0.6c0-7.8,0-15.5,0-23.3c0-1.7,0.6-3.1,2.1-4c0.8-0.5,1.6-0.7,2.5-0.6
		c1.8,0.3,3.2,1.6,3.6,3.4c0.1,0.5,0.1,0.9,0.1,1.4c0,7.6,0,15.1,0,22.7c0,0.3,0,0.6,0,1c0.1-0.1,0.2-0.1,0.2-0.2
		c3.1-3,6.1-6.1,9.2-9.1c0.7-0.7,1.5-1.2,2.5-1.4c0.6-0.1,1.3,0,1.9,0.2c1.5,0.6,2.4,1.6,2.7,3.2c0.3,1.4-0.2,2.7-1.2,3.7
		c-0.8,0.8-1.6,1.6-2.4,2.4c-4.6,4.6-9.3,9.3-13.9,13.9c-0.5,0.5-1,1-1.7,1.2c-1.4,0.4-2.8,0.3-3.9-0.7c-1.2-1-2.2-2.1-3.3-3.2
		C11.9,35.4,8,31.5,4.1,27.6c-0.6-0.6-1.2-1.2-1.8-1.9C1.7,25,1.2,24.2,1,23.3c-0.3-1.4,0.8-3.4,2-4.1c1.7-1,3.6-0.8,5.1,0.7
		c2.9,2.9,5.9,5.9,8.8,8.8C17.1,28.9,17.3,29.1,17.6,29.4z"/>
</g>
</svg>
