<?xml version="1.0" encoding="utf-8"?>
<!-- Generator: Adobe Illustrator 27.3.1, SVG Export Plug-In . SVG Version: 6.00 Build 0)  -->
<svg version="1.1" id="Layer_1" xmlns="http://www.w3.org/2000/svg" xmlns:xlink="http://www.w3.org/1999/xlink" x="0px" y="0px"
	 viewBox="0 0 800 800" style="enable-background:new 0 0 800 800;" xml:space="preserve">
<style type="text/css">
	.st0{fill:#FFFFFF;}
</style>
<g id="SVGRepo_bgCarrier">
</g>
<g id="SVGRepo_tracerCarrier">
</g>
<g id="SVGRepo_iconCarrier">
	<path class="st0" d="M743.6,490c-5.3-9-41.8-5.6-79.1,1.1c-20.7,3.7-59.4,0.5-80.4-0.5c-77.7-3.3-145.7-45.9-194.7-100.9
		c-43.3-48.3-51.9-100.5-52.3-168.5c0-38,11.1-94.4,26.1-129.1c14.7-33.7,19.3-48,12-55.3c-7.7-7.7-25.7-18.3-61-3.7
		C177.9,90.4,93.6,227,103.6,373.4C113.6,511,210.3,628.7,338.3,673c30.7,10.7,63,17,96.3,18.3c5.3,0.3,10.7,0.7,16,0.7
		c111.7,0,216.3-52.7,282.3-142.3C755.3,518.7,749.3,499,743.6,490z"/>
</g>
</svg>
