<?xml version="1.0" encoding="utf-8"?>
<!-- Generator: Adobe Illustrator 27.3.1, SVG Export Plug-In . SVG Version: 6.00 Build 0)  -->
<svg version="1.1" id="Layer_1" xmlns="http://www.w3.org/2000/svg" xmlns:xlink="http://www.w3.org/1999/xlink" x="0px" y="0px"
	 viewBox="0 0 129.4 142.8" style="enable-background:new 0 0 129.4 142.8;" xml:space="preserve">
<style type="text/css">
	.st0{fill:url(#SVGID_1_);}
	.st1{display:none;fill:#FFFFFF;}
	.st2{font-family:'Consolas-Bold';}
	.st3{font-size:119px;}
	.st4{fill:#FFFFFF;}
</style>
<linearGradient id="SVGID_1_" gradientUnits="userSpaceOnUse" x1="7.867" y1="71.4178" x2="122.3653" y2="71.4178">
	<stop  offset="0" style="stop-color:#D80B8C"/>
	<stop  offset="0.5799" style="stop-color:#E41A53"/>
	<stop  offset="1" style="stop-color:#ED1C24"/>
</linearGradient>
<polygon class="st0" points="64.4,142.8 124.9,110.9 129.4,30.6 64.4,0 0,30.6 4.2,110.9 "/>
<text transform="matrix(1 0 0 1 4.0103 101.9312)" class="st1 st2 st3">&lt;&gt;</text>
<g id="Hook">
	<path class="st4" d="M85.5,78.5l-1.3,18.2c-0.1,0.9,1,1.4,1.6,0.7l10.9-10.9c0.3-0.3,0.4-0.7,0.2-1.1L88,69.2
		c-0.4-0.8-1.7-0.6-1.8,0.4L85.5,78.5L85.5,78.5z"/>
	<path class="st4" d="M79.1,85.2l-23.6,23.1c-0.4,0.4-0.4,1,0,1.4l8.2,7.7c0.4,0.4,1,0.3,1.3,0l14.1-14.1c0.1-0.2,0.2-0.4,0.3-0.6
		l1.4-16.6C80.8,85,79.8,84.5,79.1,85.2z"/>
	<path class="st4" d="M60.1,95.6L39.8,77.9c-0.4-0.4-1.1-0.3-1.4,0.2l-5.8,9.2c-0.2,0.4-0.2,0.9,0.2,1.2l17.8,16.7
		c0.4,0.3,0.9,0.3,1.3,0l8.2-8.2C60.5,96.6,60.5,95.9,60.1,95.6z"/>
	<path class="st4" d="M54.9,51L41.4,72.9c-0.2,0.4-0.2,0.9,0.2,1.2l8.5,7.2c0.5,0.4,1.2,0.3,1.5-0.3L66.8,52
		c0.3-0.6-0.1-1.4-0.8-1.4H55.7C55.4,50.6,55.1,50.7,54.9,51z"/>
	<path class="st4" d="M68.7,25.3H57.9c-0.4,0-0.8,0.2-0.9,0.5l-5.4,9.5c-0.2,0.3-0.2,0.7,0,1.1l5.4,9.5c0.2,0.3,0.6,0.5,0.9,0.5
		h10.8c0.4,0,0.8-0.2,0.9-0.5l5.4-9.5c0.2-0.3,0.2-0.7,0-1.1l-5.4-9.5C69.5,25.5,69.1,25.3,68.7,25.3z"/>
</g>
</svg>
