<?xml version="1.0" encoding="utf-8"?>
<!-- Generator: Adobe Illustrator 27.3.1, SVG Export Plug-In . SVG Version: 6.00 Build 0)  -->
<svg version="1.1" id="Layer_1" xmlns="http://www.w3.org/2000/svg" xmlns:xlink="http://www.w3.org/1999/xlink" x="0px" y="0px"
	 viewBox="0 0 129.4 142.8" style="enable-background:new 0 0 129.4 142.8;" xml:space="preserve">
<style type="text/css">
	.st0{fill:#FFFFFF;}
</style>
<path class="st0" d="M64.4,0L0,30.6l4.2,80.3l60.2,31.9l60.5-31.9l4.5-80.3L64.4,0z M51.6,35.3l5.4-9.5c0.1-0.3,0.5-0.5,0.9-0.5
	h10.8c0.4,0,0.8,0.2,0.9,0.5l5.4,9.5c0.2,0.4,0.2,0.8,0,1.1l-5.4,9.5c-0.1,0.3-0.5,0.5-0.9,0.5H57.9c-0.3,0-0.7-0.2-0.9-0.5
	l-5.4-9.5C51.4,36,51.4,35.6,51.6,35.3z M41.4,72.9L54.9,51c0.2-0.3,0.5-0.4,0.8-0.4H66c0.7,0,1.1,0.8,0.8,1.4L51.6,81
	c-0.3,0.6-1,0.7-1.5,0.3l-8.5-7.2C41.2,73.8,41.2,73.3,41.4,72.9z M50.6,105.2L32.8,88.5c-0.4-0.3-0.4-0.8-0.2-1.2l5.8-9.2
	c0.3-0.5,1-0.6,1.4-0.2l20.3,17.7c0.4,0.3,0.4,1,0,1.4l-8.2,8.2C51.5,105.5,51,105.5,50.6,105.2z M79.4,102.7
	c-0.1,0.2-0.2,0.4-0.3,0.6L65,117.4c-0.3,0.3-0.9,0.4-1.3,0l-8.2-7.7c-0.4-0.4-0.4-1,0-1.4l23.6-23.1c0.7-0.7,1.7-0.2,1.7,0.9
	L79.4,102.7z M96.7,86.5L85.8,97.4c-0.6,0.7-1.7,0.2-1.6-0.7l1.3-18.2l0.7-8.9c0.1-1,1.4-1.2,1.8-0.4l8.9,16.2
	C97.1,85.8,97,86.2,96.7,86.5z"/>
</svg>
