<?xml version="1.0" standalone="no"?>
<!DOCTYPE svg PUBLIC "-//W3C//DTD SVG 20010904//EN"
 "http://www.w3.org/TR/2001/REC-SVG-20010904/DTD/svg10.dtd">
<svg version="1.0" xmlns="http://www.w3.org/2000/svg"
 width="572.000000pt" height="572.000000pt" viewBox="0 0 572.000000 572.000000"
 preserveAspectRatio="xMidYMid meet">
<metadata>
Created by potrace 1.14, written by Peter Selinger 2001-2017
</metadata>
<g transform="translate(0.000000,572.000000) scale(0.100000,-0.100000)"
fill="#000000" stroke="none">
<path d="M2775 5686 c-38 -18 -110 -52 -160 -76 -49 -23 -116 -55 -147 -70
-31 -16 -59 -26 -62 -22 -3 3 -6 0 -6 -6 0 -7 -4 -12 -9 -12 -5 0 -53 -21
-108 -47 -54 -26 -100 -47 -103 -48 -3 -1 -43 -19 -90 -42 -47 -22 -112 -52
-145 -67 -33 -15 -67 -32 -75 -37 -8 -5 -22 -12 -30 -15 -15 -7 -78 -36 -250
-117 -52 -24 -131 -61 -175 -82 -44 -20 -125 -59 -180 -85 -55 -26 -122 -58
-150 -70 -27 -13 -115 -54 -194 -91 -79 -38 -145 -69 -147 -69 -1 0 -76 -35
-166 -78 -90 -43 -196 -93 -236 -112 l-72 -34 4 -80 c2 -45 5 -81 5 -81 1 0 4
-54 6 -120 3 -66 7 -156 10 -200 3 -44 8 -132 11 -195 3 -63 7 -149 9 -190 7
-125 14 -269 20 -380 12 -239 15 -290 20 -385 3 -55 7 -140 10 -190 2 -49 7
-130 9 -180 13 -226 17 -306 21 -385 2 -47 7 -132 10 -190 22 -426 28 -561 29
-602 1 -32 6 -40 36 -56 19 -10 89 -47 155 -81 66 -35 134 -71 150 -81 17 -10
84 -46 150 -81 66 -34 147 -78 180 -96 33 -19 85 -46 115 -61 30 -15 57 -29
60 -32 3 -3 39 -23 80 -44 41 -22 98 -51 125 -66 28 -15 85 -46 128 -69 42
-22 110 -58 150 -80 39 -21 92 -49 117 -62 25 -12 57 -31 72 -41 16 -11 28
-16 28 -13 0 3 13 -3 29 -14 16 -12 31 -21 34 -21 2 0 58 -29 122 -65 65 -36
124 -65 132 -65 7 0 13 -4 13 -9 0 -5 12 -14 28 -20 15 -5 59 -27 97 -49 39
-21 115 -62 170 -91 55 -30 132 -71 171 -92 l71 -39 69 36 c38 20 75 41 82 46
6 6 12 7 12 2 0 -5 4 -4 8 2 4 5 48 31 97 56 50 26 110 58 135 72 25 14 83 45
130 69 47 25 108 57 135 72 28 15 97 52 155 82 58 31 128 67 155 82 28 14 52
29 53 34 2 4 12 7 23 7 10 0 19 5 19 10 0 6 6 10 14 10 7 0 19 7 26 15 7 8 16
13 20 10 3 -2 16 3 28 11 12 8 70 40 129 71 60 32 140 74 178 95 39 20 81 42
94 48 13 6 36 19 51 30 16 11 35 20 43 20 9 0 17 3 19 8 2 4 35 23 73 42 39
19 72 37 75 40 3 3 32 19 65 36 55 28 177 93 350 186 39 21 96 50 127 65 53
26 58 31 59 63 1 19 3 60 4 90 5 86 14 236 21 345 3 55 7 127 9 160 6 129 16
300 20 359 2 33 7 111 10 171 3 61 8 146 10 190 3 44 7 121 10 170 2 50 7 131
10 180 3 50 7 131 10 180 2 50 7 133 10 185 3 52 8 129 10 170 7 144 16 306
20 370 3 36 7 115 10 175 3 61 8 137 10 170 15 207 15 275 0 275 -8 0 -15 5
-15 10 0 6 -4 10 -10 10 -5 0 -45 16 -87 36 -43 20 -107 49 -143 66 -36 16
-96 45 -135 63 -38 18 -115 54 -170 80 -55 26 -122 57 -150 70 -172 81 -236
110 -280 130 -27 13 -90 42 -140 65 -99 46 -126 57 -139 58 -5 0 -12 5 -15 10
-3 5 -51 30 -106 55 -55 25 -143 65 -195 90 -52 24 -120 56 -150 69 -66 31
-207 96 -310 145 -41 20 -108 51 -149 70 -41 19 -102 47 -135 63 -80 38 -259
120 -260 120 -1 0 -32 -15 -71 -34z"/>
</g>
</svg>
