<?xml version="1.0" encoding="utf-8"?>
<!-- Generator: Adobe Illustrator 27.3.1, SVG Export Plug-In . SVG Version: 6.00 Build 0)  -->
<svg version="1.1" id="Layer_1" xmlns="http://www.w3.org/2000/svg" xmlns:xlink="http://www.w3.org/1999/xlink" x="0px" y="0px"
	 viewBox="0 0 788.6 606.3" style="enable-background:new 0 0 788.6 606.3;" xml:space="preserve">
<path d="M411.8,511.3c0,0,27-36.1,75-36.1s216.9,41.3,216.9,41.3L411.8,511.3z"/>
<path d="M414.3,136.5c17.3-15.8,50.6-43.8,80.4-43.8c42.5,0,209.1,49.1,209.1,49.1v343.8c0,0-156.5-42.5-221-40.8
	c-39.1,1-60.3,19.2-70.9,33.3L414.3,136.5z"/>
<path d="M380.5,511.3c0,0-27-36.1-75-36.1S88.6,516.6,88.6,516.6L380.5,511.3z"/>
<path d="M379.8,134.8c-17.3-15.8-50.6-42.1-80.4-42.1c-42.5,0-209.1,47.4-209.1,47.4v343.8c0,0,156.5-42.5,221-40.8
	c39.1,1,60.3,19.2,70.9,33.3L379.8,134.8z"/>
</svg>
