<?xml version="1.0" encoding="utf-8"?>
<!-- Generator: Adobe Illustrator 27.3.1, SVG Export Plug-In . SVG Version: 6.00 Build 0)  -->
<svg version="1.1" id="Layer_1" xmlns="http://www.w3.org/2000/svg" xmlns:xlink="http://www.w3.org/1999/xlink" x="0px" y="0px"
	 viewBox="0 0 1000 1000" style="enable-background:new 0 0 1000 1000;" xml:space="preserve">
<path d="M761.4,585.9l84-20.5L843.3,443l-78.5-15.3c-4.9-17.8-11.6-34.9-19.8-51l46-75.7l-88-85l-68.2,45.9
	c-17.3-9.7-35.7-17.6-55-23.4l-19.8-87.3H437.6l-18.8,88h0c-19.6,6.1-38.3,14.4-55.8,24.5l-72.2-43.8l-85,88l48.4,71.9
	c-8.4,16.9-15.1,34.9-19.8,53.6l-79.8,19.5l2.1,122.3l84.5,16.5c5.2,14.9,11.7,29.3,19.3,42.9l-44.1,72.7l88,85l70.1-47.2
	c14.3,7.4,29.2,13.5,44.8,18.3l20.9,85.3l122.3-2.1l16.1-82.4c15.9-4.7,31.1-10.8,45.6-18.2l76.6,46.5l85-88l-46.4-68.8
	C748.4,620.1,755.8,603.4,761.4,585.9z M500.4,605.5c-57.6,0-104.3-46.7-104.3-104.3S442.8,397,500.4,397s104.3,46.7,104.3,104.3
	S558,605.5,500.4,605.5z"/>
</svg>
