<?xml version="1.0" encoding="utf-8"?>
<!-- Generator: Adobe Illustrator 27.3.1, SVG Export Plug-In . SVG Version: 6.00 Build 0)  -->
<svg version="1.1" id="Layer_1" xmlns="http://www.w3.org/2000/svg" xmlns:xlink="http://www.w3.org/1999/xlink" x="0px" y="0px"
	 viewBox="0 0 1000 1000" style="enable-background:new 0 0 1000 1000;" xml:space="preserve">
<path d="M140.7,640.3c0.6,76.8,28.5,109,75.6,156.7c43.3,43.9,81.7,56,183,46c75.1-7.4,161.7-77.6,161.7-77.6
	s120.5-101.8,137.4-121.9c16.9-20.2,189.4-206.1,156.9-237.8c-27.8-27.1-199.4,138.7-207.7,130.1c-9.7-10.1,219.4-212.5,176.7-254.1
	C789.2,247.5,579.9,472.2,571,462.4c-18.3-19.9,239.5-223.3,190.8-268.3C716.2,152,498.9,404.4,490.1,393.3
	c-11.1-14.1,202.1-202.1,162.6-236C607.1,118.2,323.5,410,325.4,396.8c2.8-18.6-2.4-24.2,14.9-69.2c20.7-54.2,28.1-133-22.6-132.4
	c-37.5,0.4-75,126.4-75,126.4l-42,105.7C200.8,427.2,140.1,563.5,140.7,640.3z"/>
</svg>
