<?xml version="1.0" encoding="utf-8"?>
<!-- Generator: Adobe Illustrator 27.3.1, SVG Export Plug-In . SVG Version: 6.00 Build 0)  -->
<svg version="1.1" id="Layer_1" xmlns="http://www.w3.org/2000/svg" xmlns:xlink="http://www.w3.org/1999/xlink" x="0px" y="0px"
	 viewBox="0 0 1000 1000" style="enable-background:new 0 0 1000 1000;" xml:space="preserve">
<g>
	<path d="M449.5,454.8H318.4v-86.8h245.4v377.4h133.9v86.8H302.4v-86.8h147.1V454.8z M572.9,240.9c0,10.1-1.8,19.5-5.5,28.3
		c-3.7,8.8-8.8,16.5-15.3,23.1c-6.6,6.6-14.2,11.7-23.1,15.5c-8.8,3.8-18.4,5.7-28.8,5.7c-10.4,0-20-1.9-29-5.7
		c-9-3.8-16.8-9-23.3-15.5c-6.6-6.5-11.7-14.2-15.3-23.1c-3.7-8.8-5.5-18.3-5.5-28.3c0-10.1,1.8-19.5,5.5-28.3
		c3.7-8.8,8.8-16.6,15.3-23.3c6.5-6.7,14.3-12,23.3-15.8c9-3.8,18.7-5.7,29-5.7c10.4,0,19.9,1.9,28.8,5.7
		c8.8,3.8,16.5,9.1,23.1,15.8c6.5,6.7,11.7,14.5,15.3,23.3C571.1,221.4,572.9,230.9,572.9,240.9z"/>
</g>
</svg>
