<?xml version="1.0" encoding="utf-8"?>
<!-- Generator: Adobe Illustrator 27.3.1, SVG Export Plug-In . SVG Version: 6.00 Build 0)  -->
<svg version="1.1" id="Layer_1" xmlns="http://www.w3.org/2000/svg" xmlns:xlink="http://www.w3.org/1999/xlink" x="0px" y="0px"
	 viewBox="0 0 1000 1000" style="enable-background:new 0 0 1000 1000;" xml:space="preserve">
<g>
	<path d="M398.8,327.6v-60.3c0-15.9,12.9-28.8,28.8-28.8h396c15.9,0,28.8,12.9,28.8,28.8v60.3c0,15.9-12.9,28.8-28.8,28.8h-396
		C411.7,356.4,398.8,343.5,398.8,327.6z"/>
	<path d="M270,530.2v-60.3c0-15.9,12.9-28.8,28.8-28.8h396c15.9,0,28.8,12.9,28.8,28.8v60.3c0,15.9-12.9,28.8-28.8,28.8h-396
		C282.9,559,270,546.1,270,530.2z"/>
	<path d="M147.6,732.7v-60.3c0-15.9,12.9-28.8,28.8-28.8h396c15.9,0,28.8,12.9,28.8,28.8v60.3c0,15.9-12.9,28.8-28.8,28.8h-396
		C160.5,761.5,147.6,748.6,147.6,732.7z"/>
</g>
</svg>
