<?xml version="1.0" encoding="utf-8"?>
<!-- Generator: Adobe Illustrator 27.3.1, SVG Export Plug-In . SVG Version: 6.00 Build 0)  -->
<svg version="1.1" id="Layer_1" xmlns="http://www.w3.org/2000/svg" xmlns:xlink="http://www.w3.org/1999/xlink" x="0px" y="0px"
	 viewBox="0 0 1000 1000" style="enable-background:new 0 0 1000 1000;" xml:space="preserve">
<g id="group">
	<g>
		<path d="M168.7,837.1c-0.2,0-0.5,0-0.6,0c0-0.2,0-0.4,0-0.6c0.6-11.1,6.3-96.9,39.1-117.8c37.4-23.8,68.2,1.8,72.7,6
			c0.2,0.1,0.3,0.3,0.4,0.3c0,0,0,0,0,0c0,0.1,0.1,0.1,0.2,0.2c4.2,4.6,29.8,35.3,6,72.7C265.6,830.8,179.8,836.5,168.7,837.1z"/>
		<path d="M392.4,765.8c-11,11.3-28.9,11.7-39.8,0.8l-114-114c-10.9-10.9-10.5-28.8,0.8-39.8l15.8-15.4l75.7,76.8l76.8,75.7
			L392.4,765.8z"/>
		<path d="M554.7,773.2L540,660.7c0,0,122.9-71.9,226.6-214.9c89.5-123.3,72.9-238.6,73.9-280.6l0.6-0.6c-0.2,0-0.4,0-0.6,0
			c-0.2,0-0.4,0-0.6,0c-42,1-157.3-15.6-280.6,73.9C416.4,342.3,344.5,465.2,344.5,465.2L232,450.5c-8.9-2.6-18.7,0-25.4,6.7
			l-86.1,86.1l140,47.1l76.9,76.8l0.6,0.6l76.8,76.9l47.1,140l86.1-86.1C554.7,791.9,557.3,782.2,554.7,773.2z M659.1,449.1
			c-29.2,29.2-76,30-104.6,1.6c-28.4-28.6-27.7-75.3,1.6-104.6l0.1-0.1c29.2-29.2,76-29.9,104.6-1.6
			C689.1,373.1,688.4,419.8,659.1,449.1L659.1,449.1z"/>
	</g>
</g>
</svg>
