<?xml version="1.0" encoding="utf-8"?>
<!-- Generator: Adobe Illustrator 27.3.1, SVG Export Plug-In . SVG Version: 6.00 Build 0)  -->
<svg version="1.1" id="Layer_1" xmlns="http://www.w3.org/2000/svg" xmlns:xlink="http://www.w3.org/1999/xlink" x="0px" y="0px"
	 viewBox="0 0 1000 1000" style="enable-background:new 0 0 1000 1000;" xml:space="preserve">
<style type="text/css">
	.st0{stroke:#000000;stroke-width:10;stroke-miterlimit:10;}
</style>
<g>
	<path class="st0" d="M367,826.1c-48.5,0-84.7-11.7-108.6-35c-23.9-23.3-35.9-60.3-35.9-110.9v-89.3c0-24.1-5.4-42.3-16.2-54.5
		c-10.8-12.2-28.7-18.3-53.8-18.3h-22.1v-66.4h22.1c12.7,0,23.4-1.3,32.3-4c8.9-2.7,16.2-6.9,21.8-12.5s9.7-12.8,12.1-21.6
		s3.7-19.3,3.7-31.5v-61.9c0-24.1,2.8-45.4,8.3-63.6c5.5-18.3,14.1-33.5,25.8-45.7c11.7-12.2,26.7-21.4,44.8-27.6
		c18.2-6.2,40-9.3,65.6-9.3h29.5V240h-22.1c-11.2,0-21.4,1.4-30.4,4c-9,2.7-16.8,7.1-23.4,13.2c-6.6,6.1-11.6,14.1-15.1,24.1
		c-3.5,10-5.3,22.3-5.3,37.1v61.5c0,17.6-1.5,32.6-4.4,45c-2.9,12.4-7.4,22.8-13.5,31.1c-6.1,8.3-13.8,14.8-23.2,19.3
		c-9.4,4.6-20.4,7.8-33,9.7c25.1,2.8,43.7,12.6,55.9,29.4c12.2,16.8,18.3,42.5,18.3,77.2v89.3c0,15.2,1.8,27.9,5.3,38
		c3.5,10.1,8.6,18.2,15.1,24.3c6.6,6.1,14.4,10.4,23.4,13c9,2.6,19.2,3.9,30.4,3.9h22.1v66.1H367z"/>
	<path class="st0" d="M632.6,173.9c48.7,0,85.1,11.7,109,35c23.9,23.3,35.9,60.4,35.9,111.3v59.1c0,24.1,5.3,42.2,16,54.3
		c10.7,12.1,28.5,18.1,53.6,18.1h22.5v66.4h-22.5c-12.7,0-23.4,1.4-32.3,4c-8.9,2.7-16.1,6.9-21.6,12.5c-5.5,5.6-9.5,12.8-12,21.6
		c-2.5,8.8-3.7,19.3-3.7,31.5v92.5c0,24.1-2.8,45.3-8.3,63.5c-5.5,18.2-14.1,33.3-25.8,45.5c-11.7,12.2-26.7,21.4-45,27.6
		c-18.3,6.2-40.2,9.3-65.7,9.3h-29.5V760h22.5c11.2,0,21.4-1.3,30.4-3.9c9-2.6,16.8-7,23.4-13.2c6.6-6.2,11.6-14.3,15.1-24.3
		c3.5-10,5.3-22.3,5.3-37.1v-91.4c0-17.6,1.5-32.6,4.4-45.2c2.9-12.5,7.4-23,13.4-31.3c6-8.3,13.7-14.7,23-19.2
		c9.4-4.4,20.4-7.6,33-9.5c-25.1-3-43.7-12.9-55.7-29.7c-12.1-16.8-18.1-42.5-18.1-77.2v-58.7c0-15.2-1.8-27.9-5.3-38.1
		s-8.6-18.3-15.1-24.4c-6.6-6.1-14.4-10.4-23.4-13c-9-2.6-19.2-3.9-30.4-3.9h-22.5v-66.1H632.6z"/>
</g>
</svg>
